  0
SECTION
  2
HEADER
  9
$ACADVER
  1
AC1009
  9
$FILLMODE
 70
 0
  9
$SPLFRAME
 70
 1
  9
$EXTMIN
 10
0
 20
0
 30
0.0
  9
$EXTMAX
 10
1058.33
 20
1058.33
 30
0.0
  0
ENDSEC
  0
SECTION
  2
TABLES
  0
TABLE
  2
LAYER
 70
1
  0
LAYER
  2
0
 70
     0
 62
     7
  6
CONTINUOUS
  0
ENDTAB
  0
ENDSEC
  0
SECTION
  2
ENTITIES
  0
LINE
  8
0
 62
     0
 10
0.0950846
 20
133.96
 30
0.0
 11
338.233
 21
133.96
 31
0.0
  0
LINE
  8
0
 62
     0
 10
338.233
 20
133.96
 30
0.0
 11
338.233
 21
0.300412
 31
0.0
  0
LINE
  8
0
 62
     0
 10
338.233
 20
0.300412
 30
0.0
 11
0.0950846
 21
0.300412
 31
0.0
  0
LINE
  8
0
 62
     0
 10
0.0950846
 20
0.300412
 30
0.0
 11
0.0950846
 21
133.96
 31
0.0
  0
LINE
  8
0
 62
     0
 10
194.09
 20
21.536
 30
0.0
 11
194.218
 21
20.6251
 31
0.0
  0
LINE
  8
0
 62
     0
 10
194.218
 20
20.6251
 30
0.0
 11
192.509
 21
20.3853
 31
0.0
  0
LINE
  8
0
 62
     0
 10
192.509
 20
20.3853
 30
0.0
 11
192.96
 21
17.1869
 31
0.0
  0
LINE
  8
0
 62
     0
 10
192.96
 20
17.1869
 30
0.0
 11
191.448
 21
16.9747
 31
0.0
  0
LINE
  8
0
 62
     0
 10
191.448
 20
16.9747
 30
0.0
 11
190.795
 21
21.6297
 31
0.0
  0
LINE
  8
0
 62
     0
 10
190.795
 20
21.6297
 30
0.0
 11
176.932
 21
19.6798
 31
0.0
  0
LINE
  8
0
 62
     0
 10
176.932
 20
19.6798
 30
0.0
 11
177.585
 21
15.0261
 31
0.0
  0
LINE
  8
0
 62
     0
 10
177.585
 20
15.0261
 30
0.0
 11
176.076
 21
14.8139
 31
0.0
  0
LINE
  8
0
 62
     0
 10
176.076
 20
14.8139
 30
0.0
 11
175.625
 21
18.0123
 31
0.0
  0
LINE
  8
0
 62
     0
 10
175.625
 20
18.0123
 30
0.0
 11
173.918
 21
17.7726
 31
0.0
  0
LINE
  8
0
 62
     0
 10
173.918
 20
17.7726
 30
0.0
 11
173.79
 21
18.6834
 31
0.0
  0
LINE
  8
0
 62
     0
 10
173.79
 20
18.6834
 30
0.0
 11
170.521
 21
18.2246
 31
0.0
  0
LINE
  8
0
 62
     0
 10
170.521
 20
18.2246
 30
0.0
 11
170.649
 21
17.3137
 31
0.0
  0
LINE
  8
0
 62
     0
 10
170.649
 20
17.3137
 30
0.0
 11
168.942
 21
17.0725
 31
0.0
  0
LINE
  8
0
 62
     0
 10
168.942
 20
17.0725
 30
0.0
 11
169.39
 21
13.8741
 31
0.0
  0
LINE
  8
0
 62
     0
 10
169.39
 20
13.8741
 30
0.0
 11
168.574
 21
13.7597
 31
0.0
  0
LINE
  8
0
 62
     0
 10
168.574
 20
13.7597
 30
0.0
 11
168.964
 21
10.9871
 31
0.0
  0
LINE
  8
0
 62
     0
 10
168.964
 20
10.9871
 30
0.0
 11
169.78
 21
11.1015
 31
0.0
  0
LINE
  8
0
 62
     0
 10
169.78
 20
11.1015
 30
0.0
 11
170.653
 21
4.89342
 31
0.0
  0
LINE
  8
0
 62
     0
 10
170.653
 20
4.89342
 30
0.0
 11
172.361
 21
5.1332
 31
0.0
  0
LINE
  8
0
 62
     0
 10
172.361
 20
5.1332
 30
0.0
 11
172.497
 21
4.16168
 31
0.0
  0
LINE
  8
0
 62
     0
 10
172.497
 20
4.16168
 30
0.0
 11
175.766
 21
4.62195
 31
0.0
  0
LINE
  8
0
 62
     0
 10
175.766
 20
4.62195
 30
0.0
 11
175.63
 21
5.59209
 31
0.0
  0
LINE
  8
0
 62
     0
 10
175.63
 20
5.59209
 30
0.0
 11
177.337
 21
5.83188
 31
0.0
  0
LINE
  8
0
 62
     0
 10
177.337
 20
5.83188
 30
0.0
 11
176.716
 21
10.2595
 31
0.0
  0
LINE
  8
0
 62
     0
 10
176.716
 20
10.2595
 30
0.0
 11
178.226
 21
10.4717
 31
0.0
  0
LINE
  8
0
 62
     0
 10
178.226
 20
10.4717
 30
0.0
 11
178.879
 21
5.81671
 31
0.0
  0
LINE
  8
0
 62
     0
 10
178.879
 20
5.81671
 30
0.0
 11
192.743
 21
7.76524
 31
0.0
  0
LINE
  8
0
 62
     0
 10
192.743
 20
7.76524
 30
0.0
 11
192.089
 21
12.4189
 31
0.0
  0
LINE
  8
0
 62
     0
 10
192.089
 20
12.4189
 30
0.0
 11
193.599
 21
12.6311
 31
0.0
  0
LINE
  8
0
 62
     0
 10
193.599
 20
12.6311
 30
0.0
 11
194.222
 21
8.20483
 31
0.0
  0
LINE
  8
0
 62
     0
 10
194.222
 20
8.20483
 30
0.0
 11
195.93
 21
8.44599
 31
0.0
  0
LINE
  8
0
 62
     0
 10
195.93
 20
8.44599
 30
0.0
 11
196.066
 21
7.47448
 31
0.0
  0
LINE
  8
0
 62
     0
 10
196.066
 20
7.47448
 30
0.0
 11
199.333
 21
7.93475
 31
0.0
  0
LINE
  8
0
 62
     0
 10
199.333
 20
7.93475
 30
0.0
 11
199.197
 21
8.90489
 31
0.0
  0
LINE
  8
0
 62
     0
 10
199.197
 20
8.90489
 30
0.0
 11
200.906
 21
9.14467
 31
0.0
  0
LINE
  8
0
 62
     0
 10
200.906
 20
9.14467
 30
0.0
 11
200.033
 21
15.3527
 31
0.0
  0
LINE
  8
0
 62
     0
 10
200.033
 20
15.3527
 30
0.0
 11
200.851
 21
15.4685
 31
0.0
  0
LINE
  8
0
 62
     0
 10
200.851
 20
15.4685
 30
0.0
 11
200.46
 21
18.2411
 31
0.0
  0
LINE
  8
0
 62
     0
 10
200.46
 20
18.2411
 30
0.0
 11
199.643
 21
18.1267
 31
0.0
  0
LINE
  8
0
 62
     0
 10
199.643
 20
18.1267
 30
0.0
 11
199.194
 21
21.3251
 31
0.0
  0
LINE
  8
0
 62
     0
 10
199.194
 20
21.3251
 30
0.0
 11
197.485
 21
21.0854
 31
0.0
  0
LINE
  8
0
 62
     0
 10
197.485
 20
21.0854
 30
0.0
 11
197.357
 21
21.9963
 31
0.0
  0
LINE
  8
0
 62
     0
 10
197.357
 20
21.9963
 30
0.0
 11
194.09
 21
21.536
 31
0.0
  0
LINE
  8
0
 62
     0
 10
102.351
 20
21.9687
 30
0.0
 11
100.641
 21
22.2085
 31
0.0
  0
LINE
  8
0
 62
     0
 10
100.641
 20
22.2085
 30
0.0
 11
99.7701
 21
16.0004
 31
0.0
  0
LINE
  8
0
 62
     0
 10
99.7701
 20
16.0004
 30
0.0
 11
98.9528
 21
16.1148
 31
0.0
  0
LINE
  8
0
 62
     0
 10
98.9528
 20
16.1148
 30
0.0
 11
98.5629
 21
13.3422
 31
0.0
  0
LINE
  8
0
 62
     0
 10
98.5629
 20
13.3422
 30
0.0
 11
99.38
 21
13.2264
 31
0.0
  0
LINE
  8
0
 62
     0
 10
99.38
 20
13.2264
 30
0.0
 11
98.9295
 21
10.0307
 31
0.0
  0
LINE
  8
0
 62
     0
 10
98.9295
 20
10.0307
 30
0.0
 11
100.638
 21
9.78958
 31
0.0
  0
LINE
  8
0
 62
     0
 10
100.638
 20
9.78958
 30
0.0
 11
100.51
 21
8.87734
 31
0.0
  0
LINE
  8
0
 62
     0
 10
100.51
 20
8.87734
 30
0.0
 11
103.779
 21
8.41844
 31
0.0
  0
LINE
  8
0
 62
     0
 10
103.779
 20
8.41844
 30
0.0
 11
103.907
 21
9.32931
 31
0.0
  0
LINE
  8
0
 62
     0
 10
103.907
 20
9.32931
 30
0.0
 11
105.614
 21
9.08953
 31
0.0
  0
LINE
  8
0
 62
     0
 10
105.614
 20
9.08953
 30
0.0
 11
106.063
 21
12.288
 31
0.0
  0
LINE
  8
0
 62
     0
 10
106.063
 20
12.288
 30
0.0
 11
107.574
 21
12.0758
 31
0.0
  0
LINE
  8
0
 62
     0
 10
107.574
 20
12.0758
 30
0.0
 11
106.919
 21
7.42075
 31
0.0
  0
LINE
  8
0
 62
     0
 10
106.919
 20
7.42075
 30
0.0
 11
120.784
 21
5.47356
 31
0.0
  0
LINE
  8
0
 62
     0
 10
120.784
 20
5.47356
 30
0.0
 11
121.437
 21
10.1272
 31
0.0
  0
LINE
  8
0
 62
     0
 10
121.437
 20
10.1272
 30
0.0
 11
122.947
 21
9.91637
 31
0.0
  0
LINE
  8
0
 62
     0
 10
122.947
 20
9.91637
 30
0.0
 11
122.498
 21
6.71657
 31
0.0
  0
LINE
  8
0
 62
     0
 10
122.498
 20
6.71657
 30
0.0
 11
124.207
 21
6.47541
 31
0.0
  0
LINE
  8
0
 62
     0
 10
124.207
 20
6.47541
 30
0.0
 11
124.079
 21
5.56451
 31
0.0
  0
LINE
  8
0
 62
     0
 10
124.079
 20
5.56451
 30
0.0
 11
127.346
 21
5.10565
 31
0.0
  0
LINE
  8
0
 62
     0
 10
127.346
 20
5.10565
 30
0.0
 11
127.474
 21
6.01652
 31
0.0
  0
LINE
  8
0
 62
     0
 10
127.474
 20
6.01652
 30
0.0
 11
129.183
 21
5.77674
 31
0.0
  0
LINE
  8
0
 62
     0
 10
129.183
 20
5.77674
 30
0.0
 11
129.632
 21
8.97654
 31
0.0
  0
LINE
  8
0
 62
     0
 10
129.632
 20
8.97654
 30
0.0
 11
130.449
 21
8.86079
 31
0.0
  0
LINE
  8
0
 62
     0
 10
130.449
 20
8.86079
 30
0.0
 11
130.838
 21
11.6334
 31
0.0
  0
LINE
  8
0
 62
     0
 10
130.838
 20
11.6334
 30
0.0
 11
130.022
 21
11.7478
 31
0.0
  0
LINE
  8
0
 62
     0
 10
130.022
 20
11.7478
 30
0.0
 11
130.894
 21
17.9572
 31
0.0
  0
LINE
  8
0
 62
     0
 10
130.894
 20
17.9572
 30
0.0
 11
129.187
 21
18.197
 31
0.0
  0
LINE
  8
0
 62
     0
 10
129.187
 20
18.197
 30
0.0
 11
129.322
 21
19.1685
 31
0.0
  0
LINE
  8
0
 62
     0
 10
129.322
 20
19.1685
 30
0.0
 11
126.055
 21
19.6274
 31
0.0
  0
LINE
  8
0
 62
     0
 10
126.055
 20
19.6274
 30
0.0
 11
125.918
 21
18.6559
 31
0.0
  0
LINE
  8
0
 62
     0
 10
125.918
 20
18.6559
 30
0.0
 11
124.211
 21
18.897
 31
0.0
  0
LINE
  8
0
 62
     0
 10
124.211
 20
18.897
 30
0.0
 11
123.588
 21
14.4694
 31
0.0
  0
LINE
  8
0
 62
     0
 10
123.588
 20
14.4694
 30
0.0
 11
122.079
 21
14.6816
 31
0.0
  0
LINE
  8
0
 62
     0
 10
122.079
 20
14.6816
 30
0.0
 11
122.732
 21
19.3366
 31
0.0
  0
LINE
  8
0
 62
     0
 10
122.732
 20
19.3366
 30
0.0
 11
108.869
 21
21.2852
 31
0.0
  0
LINE
  8
0
 62
     0
 10
108.869
 20
21.2852
 30
0.0
 11
108.215
 21
16.6315
 31
0.0
  0
LINE
  8
0
 62
     0
 10
108.215
 20
16.6315
 30
0.0
 11
106.704
 21
16.8424
 31
0.0
  0
LINE
  8
0
 62
     0
 10
106.704
 20
16.8424
 30
0.0
 11
107.327
 21
21.2687
 31
0.0
  0
LINE
  8
0
 62
     0
 10
107.327
 20
21.2687
 30
0.0
 11
105.617
 21
21.5098
 31
0.0
  0
LINE
  8
0
 62
     0
 10
105.617
 20
21.5098
 30
0.0
 11
105.755
 21
22.48
 31
0.0
  0
LINE
  8
0
 62
     0
 10
105.755
 20
22.48
 30
0.0
 11
102.486
 21
22.9388
 31
0.0
  0
LINE
  8
0
 62
     0
 10
102.486
 20
22.9388
 30
0.0
 11
102.351
 21
21.9687
 31
0.0
  0
LINE
  8
0
 62
     0
 10
273.701
 20
23.2324
 30
0.0
 11
287.7
 21
23.2324
 31
0.0
  0
LINE
  8
0
 62
     0
 10
287.7
 20
23.2324
 30
0.0
 11
287.7
 21
9.23286
 31
0.0
  0
LINE
  8
0
 62
     0
 10
287.7
 20
9.23286
 30
0.0
 11
273.701
 21
9.23286
 31
0.0
  0
LINE
  8
0
 62
     0
 10
273.701
 20
9.23286
 30
0.0
 11
273.701
 21
23.2324
 31
0.0
  0
LINE
  8
0
 62
     0
 10
292.751
 20
23.2324
 30
0.0
 11
306.75
 21
23.2324
 31
0.0
  0
LINE
  8
0
 62
     0
 10
306.75
 20
23.2324
 30
0.0
 11
306.75
 21
9.23286
 31
0.0
  0
LINE
  8
0
 62
     0
 10
306.75
 20
9.23286
 30
0.0
 11
292.751
 21
9.23286
 31
0.0
  0
LINE
  8
0
 62
     0
 10
292.751
 20
9.23286
 30
0.0
 11
292.751
 21
23.2324
 31
0.0
  0
LINE
  8
0
 62
     0
 10
311.801
 20
23.2324
 30
0.0
 11
325.8
 21
23.2324
 31
0.0
  0
LINE
  8
0
 62
     0
 10
325.8
 20
23.2324
 30
0.0
 11
325.8
 21
9.23286
 31
0.0
  0
LINE
  8
0
 62
     0
 10
325.8
 20
9.23286
 30
0.0
 11
311.801
 21
9.23286
 31
0.0
  0
LINE
  8
0
 62
     0
 10
311.801
 20
9.23286
 30
0.0
 11
311.801
 21
23.2324
 31
0.0
  0
LINE
  8
0
 62
     0
 10
207.586
 20
23.9889
 30
0.0
 11
209.535
 21
10.1244
 31
0.0
  0
LINE
  8
0
 62
     0
 10
209.535
 20
10.1244
 30
0.0
 11
223.398
 21
12.073
 31
0.0
  0
LINE
  8
0
 62
     0
 10
223.398
 20
12.073
 30
0.0
 11
221.449
 21
25.9374
 31
0.0
  0
LINE
  8
0
 62
     0
 10
221.449
 20
25.9374
 30
0.0
 11
207.586
 21
23.9889
 31
0.0
  0
LINE
  8
0
 62
     0
 10
69.19
 20
12.7234
 30
0.0
 11
83.0545
 21
10.7749
 31
0.0
  0
LINE
  8
0
 62
     0
 10
83.0545
 20
10.7749
 30
0.0
 11
85.0029
 21
24.6393
 31
0.0
  0
LINE
  8
0
 62
     0
 10
85.0029
 20
24.6393
 30
0.0
 11
71.1398
 21
26.5865
 31
0.0
  0
LINE
  8
0
 62
     0
 10
71.1398
 20
26.5865
 30
0.0
 11
69.19
 21
12.7234
 31
0.0
  0
LINE
  8
0
 62
     0
 10
14.5259
 20
27.6145
 30
0.0
 11
28.5254
 21
27.6145
 31
0.0
  0
LINE
  8
0
 62
     0
 10
28.5254
 20
27.6145
 30
0.0
 11
28.5254
 21
13.6136
 31
0.0
  0
LINE
  8
0
 62
     0
 10
28.5254
 20
13.6136
 30
0.0
 11
14.5259
 21
13.6136
 31
0.0
  0
LINE
  8
0
 62
     0
 10
14.5259
 20
13.6136
 30
0.0
 11
14.5259
 21
27.6145
 31
0.0
  0
LINE
  8
0
 62
     0
 10
38.3371
 20
27.6145
 30
0.0
 11
52.3378
 21
27.6145
 31
0.0
  0
LINE
  8
0
 62
     0
 10
52.3378
 20
27.6145
 30
0.0
 11
52.3378
 21
13.6136
 31
0.0
  0
LINE
  8
0
 62
     0
 10
52.3378
 20
13.6136
 30
0.0
 11
38.3371
 21
13.6136
 31
0.0
  0
LINE
  8
0
 62
     0
 10
38.3371
 20
13.6136
 30
0.0
 11
38.3371
 21
27.6145
 31
0.0
  0
LINE
  8
0
 62
     0
 10
230.838
 20
27.6145
 30
0.0
 11
244.839
 21
27.6145
 31
0.0
  0
LINE
  8
0
 62
     0
 10
244.839
 20
27.6145
 30
0.0
 11
244.839
 21
13.6136
 31
0.0
  0
LINE
  8
0
 62
     0
 10
244.839
 20
13.6136
 30
0.0
 11
230.838
 21
13.6136
 31
0.0
  0
LINE
  8
0
 62
     0
 10
230.838
 20
13.6136
 30
0.0
 11
230.838
 21
27.6145
 31
0.0
  0
LINE
  8
0
 62
     0
 10
249.888
 20
27.6145
 30
0.0
 11
263.889
 21
27.6145
 31
0.0
  0
LINE
  8
0
 62
     0
 10
263.889
 20
27.6145
 30
0.0
 11
263.889
 21
13.6136
 31
0.0
  0
LINE
  8
0
 62
     0
 10
263.889
 20
13.6136
 30
0.0
 11
249.888
 21
13.6136
 31
0.0
  0
LINE
  8
0
 62
     0
 10
249.888
 20
13.6136
 30
0.0
 11
249.888
 21
27.6145
 31
0.0
  0
LINE
  8
0
 62
     0
 10
126.078
 20
23.9655
 30
0.0
 11
139.941
 21
22.0183
 31
0.0
  0
LINE
  8
0
 62
     0
 10
139.941
 20
22.0183
 30
0.0
 11
141.89
 21
35.8814
 31
0.0
  0
LINE
  8
0
 62
     0
 10
141.89
 20
35.8814
 30
0.0
 11
128.027
 21
37.8298
 31
0.0
  0
LINE
  8
0
 62
     0
 10
128.027
 20
37.8298
 30
0.0
 11
126.078
 21
23.9655
 31
0.0
  0
LINE
  8
0
 62
     0
 10
167.582
 20
37.604
 30
0.0
 11
169.532
 21
23.7395
 31
0.0
  0
LINE
  8
0
 62
     0
 10
169.532
 20
23.7395
 30
0.0
 11
183.395
 21
25.688
 31
0.0
  0
LINE
  8
0
 62
     0
 10
183.395
 20
25.688
 30
0.0
 11
181.446
 21
39.5524
 31
0.0
  0
LINE
  8
0
 62
     0
 10
181.446
 20
39.5524
 30
0.0
 11
167.582
 21
37.604
 31
0.0
  0
LINE
  8
0
 62
     0
 10
107.214
 20
26.6168
 30
0.0
 11
121.076
 21
24.6696
 31
0.0
  0
LINE
  8
0
 62
     0
 10
121.076
 20
24.6696
 30
0.0
 11
123.026
 21
38.5329
 31
0.0
  0
LINE
  8
0
 62
     0
 10
123.026
 20
38.5329
 30
0.0
 11
109.161
 21
40.4813
 31
0.0
  0
LINE
  8
0
 62
     0
 10
109.161
 20
40.4813
 30
0.0
 11
107.214
 21
26.6168
 31
0.0
  0
LINE
  8
0
 62
     0
 10
186.447
 20
40.2551
 30
0.0
 11
188.396
 21
26.3908
 31
0.0
  0
LINE
  8
0
 62
     0
 10
188.396
 20
26.3908
 30
0.0
 11
202.259
 21
28.3407
 31
0.0
  0
LINE
  8
0
 62
     0
 10
202.259
 20
28.3407
 30
0.0
 11
200.312
 21
42.2025
 31
0.0
  0
LINE
  8
0
 62
     0
 10
200.312
 20
42.2025
 30
0.0
 11
186.447
 21
40.2551
 31
0.0
  0
LINE
  8
0
 62
     0
 10
88.349
 20
29.2681
 30
0.0
 11
102.212
 21
27.3196
 31
0.0
  0
LINE
  8
0
 62
     0
 10
102.212
 20
27.3196
 30
0.0
 11
104.16
 21
41.184
 31
0.0
  0
LINE
  8
0
 62
     0
 10
104.16
 20
41.184
 30
0.0
 11
90.2959
 21
43.1327
 31
0.0
  0
LINE
  8
0
 62
     0
 10
90.2959
 20
43.1327
 30
0.0
 11
88.349
 21
29.2681
 31
0.0
  0
LINE
  8
0
 62
     0
 10
292.751
 20
42.2822
 30
0.0
 11
306.75
 21
42.2822
 31
0.0
  0
LINE
  8
0
 62
     0
 10
306.75
 20
42.2822
 30
0.0
 11
306.75
 21
28.2815
 31
0.0
  0
LINE
  8
0
 62
     0
 10
306.75
 20
28.2815
 30
0.0
 11
292.751
 21
28.2815
 31
0.0
  0
LINE
  8
0
 62
     0
 10
292.751
 20
28.2815
 30
0.0
 11
292.751
 21
42.2822
 31
0.0
  0
LINE
  8
0
 62
     0
 10
205.312
 20
42.9066
 30
0.0
 11
207.261
 21
29.0421
 31
0.0
  0
LINE
  8
0
 62
     0
 10
207.261
 20
29.0421
 30
0.0
 11
221.124
 21
30.9907
 31
0.0
  0
LINE
  8
0
 62
     0
 10
221.124
 20
30.9907
 30
0.0
 11
219.176
 21
44.855
 31
0.0
  0
LINE
  8
0
 62
     0
 10
219.176
 20
44.855
 30
0.0
 11
205.312
 21
42.9066
 31
0.0
  0
LINE
  8
0
 62
     0
 10
69.4835
 20
31.9195
 30
0.0
 11
83.348
 21
29.9709
 31
0.0
  0
LINE
  8
0
 62
     0
 10
83.348
 20
29.9709
 30
0.0
 11
85.2964
 21
43.8355
 31
0.0
  0
LINE
  8
0
 62
     0
 10
85.2964
 20
43.8355
 30
0.0
 11
71.4319
 21
45.7824
 31
0.0
  0
LINE
  8
0
 62
     0
 10
71.4319
 20
45.7824
 30
0.0
 11
69.4835
 21
31.9195
 31
0.0
  0
LINE
  8
0
 62
     0
 10
19.287
 20
46.6644
 30
0.0
 11
19.287
 21
41.964
 31
0.0
  0
LINE
  8
0
 62
     0
 10
19.287
 20
41.964
 30
0.0
 11
17.7629
 21
41.964
 31
0.0
  0
LINE
  8
0
 62
     0
 10
17.7629
 20
41.964
 30
0.0
 11
17.7629
 21
45.194
 31
0.0
  0
LINE
  8
0
 62
     0
 10
17.7629
 20
45.194
 30
0.0
 11
16.0376
 21
45.194
 31
0.0
  0
LINE
  8
0
 62
     0
 10
16.0376
 20
45.194
 30
0.0
 11
16.0376
 21
46.1148
 31
0.0
  0
LINE
  8
0
 62
     0
 10
16.0376
 20
46.1148
 30
0.0
 11
12.7372
 21
46.1148
 31
0.0
  0
LINE
  8
0
 62
     0
 10
12.7372
 20
46.1148
 30
0.0
 11
12.7372
 21
45.194
 31
0.0
  0
LINE
  8
0
 62
     0
 10
12.7372
 20
45.194
 30
0.0
 11
11.0119
 21
45.194
 31
0.0
  0
LINE
  8
0
 62
     0
 10
11.0119
 20
45.194
 30
0.0
 11
11.0119
 21
41.964
 31
0.0
  0
LINE
  8
0
 62
     0
 10
11.0119
 20
41.964
 30
0.0
 11
10.1878
 21
41.964
 31
0.0
  0
LINE
  8
0
 62
     0
 10
10.1878
 20
41.964
 30
0.0
 11
10.1878
 21
39.164
 31
0.0
  0
LINE
  8
0
 62
     0
 10
10.1878
 20
39.164
 30
0.0
 11
11.0119
 21
39.164
 31
0.0
  0
LINE
  8
0
 62
     0
 10
11.0119
 20
39.164
 30
0.0
 11
11.0119
 21
32.8938
 31
0.0
  0
LINE
  8
0
 62
     0
 10
11.0119
 20
32.8938
 30
0.0
 11
12.7372
 21
32.8938
 31
0.0
  0
LINE
  8
0
 62
     0
 10
12.7372
 20
32.8938
 30
0.0
 11
12.7372
 21
31.914
 31
0.0
  0
LINE
  8
0
 62
     0
 10
12.7372
 20
31.914
 30
0.0
 11
16.0376
 21
31.914
 31
0.0
  0
LINE
  8
0
 62
     0
 10
16.0376
 20
31.914
 30
0.0
 11
16.0376
 21
32.8938
 31
0.0
  0
LINE
  8
0
 62
     0
 10
16.0376
 20
32.8938
 30
0.0
 11
17.7629
 21
32.8938
 31
0.0
  0
LINE
  8
0
 62
     0
 10
17.7629
 20
32.8938
 30
0.0
 11
17.7629
 21
37.3641
 31
0.0
  0
LINE
  8
0
 62
     0
 10
17.7629
 20
37.3641
 30
0.0
 11
19.287
 21
37.3641
 31
0.0
  0
LINE
  8
0
 62
     0
 10
19.287
 20
37.3641
 30
0.0
 11
19.287
 21
32.6636
 31
0.0
  0
LINE
  8
0
 62
     0
 10
19.287
 20
32.6636
 30
0.0
 11
33.2879
 21
32.6636
 31
0.0
  0
LINE
  8
0
 62
     0
 10
33.2879
 20
32.6636
 30
0.0
 11
33.2879
 21
37.3641
 31
0.0
  0
LINE
  8
0
 62
     0
 10
33.2879
 20
37.3641
 30
0.0
 11
34.812
 21
37.3641
 31
0.0
  0
LINE
  8
0
 62
     0
 10
34.812
 20
37.3641
 30
0.0
 11
34.812
 21
32.8938
 31
0.0
  0
LINE
  8
0
 62
     0
 10
34.812
 20
32.8938
 30
0.0
 11
36.5372
 21
32.8938
 31
0.0
  0
LINE
  8
0
 62
     0
 10
36.5372
 20
32.8938
 30
0.0
 11
36.5372
 21
31.914
 31
0.0
  0
LINE
  8
0
 62
     0
 10
36.5372
 20
31.914
 30
0.0
 11
39.8378
 21
31.914
 31
0.0
  0
LINE
  8
0
 62
     0
 10
39.8378
 20
31.914
 30
0.0
 11
39.8378
 21
32.8938
 31
0.0
  0
LINE
  8
0
 62
     0
 10
39.8378
 20
32.8938
 30
0.0
 11
41.5629
 21
32.8938
 31
0.0
  0
LINE
  8
0
 62
     0
 10
41.5629
 20
32.8938
 30
0.0
 11
41.5629
 21
39.164
 31
0.0
  0
LINE
  8
0
 62
     0
 10
41.5629
 20
39.164
 30
0.0
 11
42.387
 21
39.164
 31
0.0
  0
LINE
  8
0
 62
     0
 10
42.387
 20
39.164
 30
0.0
 11
42.387
 21
41.964
 31
0.0
  0
LINE
  8
0
 62
     0
 10
42.387
 20
41.964
 30
0.0
 11
41.5629
 21
41.964
 31
0.0
  0
LINE
  8
0
 62
     0
 10
41.5629
 20
41.964
 30
0.0
 11
41.5629
 21
45.194
 31
0.0
  0
LINE
  8
0
 62
     0
 10
41.5629
 20
45.194
 30
0.0
 11
39.8378
 21
45.194
 31
0.0
  0
LINE
  8
0
 62
     0
 10
39.8378
 20
45.194
 30
0.0
 11
39.8378
 21
46.1148
 31
0.0
  0
LINE
  8
0
 62
     0
 10
39.8378
 20
46.1148
 30
0.0
 11
36.5372
 21
46.1148
 31
0.0
  0
LINE
  8
0
 62
     0
 10
36.5372
 20
46.1148
 30
0.0
 11
36.5372
 21
45.194
 31
0.0
  0
LINE
  8
0
 62
     0
 10
36.5372
 20
45.194
 30
0.0
 11
34.812
 21
45.194
 31
0.0
  0
LINE
  8
0
 62
     0
 10
34.812
 20
45.194
 30
0.0
 11
34.812
 21
41.964
 31
0.0
  0
LINE
  8
0
 62
     0
 10
34.812
 20
41.964
 30
0.0
 11
33.2879
 21
41.964
 31
0.0
  0
LINE
  8
0
 62
     0
 10
33.2879
 20
41.964
 30
0.0
 11
33.2879
 21
46.6644
 31
0.0
  0
LINE
  8
0
 62
     0
 10
33.2879
 20
46.6644
 30
0.0
 11
19.287
 21
46.6644
 31
0.0
  0
LINE
  8
0
 62
     0
 10
50.2447
 20
46.6644
 30
0.0
 11
64.244
 21
46.6644
 31
0.0
  0
LINE
  8
0
 62
     0
 10
64.244
 20
46.6644
 30
0.0
 11
64.244
 21
32.6636
 31
0.0
  0
LINE
  8
0
 62
     0
 10
64.244
 20
32.6636
 30
0.0
 11
50.2447
 21
32.6636
 31
0.0
  0
LINE
  8
0
 62
     0
 10
50.2447
 20
32.6636
 30
0.0
 11
50.2447
 21
46.6644
 31
0.0
  0
LINE
  8
0
 62
     0
 10
225.885
 20
46.6644
 30
0.0
 11
239.886
 21
46.6644
 31
0.0
  0
LINE
  8
0
 62
     0
 10
239.886
 20
46.6644
 30
0.0
 11
239.886
 21
32.6636
 31
0.0
  0
LINE
  8
0
 62
     0
 10
239.886
 20
32.6636
 30
0.0
 11
225.885
 21
32.6636
 31
0.0
  0
LINE
  8
0
 62
     0
 10
225.885
 20
32.6636
 30
0.0
 11
225.885
 21
46.6644
 31
0.0
  0
LINE
  8
0
 62
     0
 10
244.935
 20
46.6644
 30
0.0
 11
258.936
 21
46.6644
 31
0.0
  0
LINE
  8
0
 62
     0
 10
258.936
 20
46.6644
 30
0.0
 11
258.936
 21
32.6636
 31
0.0
  0
LINE
  8
0
 62
     0
 10
258.936
 20
32.6636
 30
0.0
 11
244.935
 21
32.6636
 31
0.0
  0
LINE
  8
0
 62
     0
 10
244.935
 20
32.6636
 30
0.0
 11
244.935
 21
46.6644
 31
0.0
  0
LINE
  8
0
 62
     0
 10
263.985
 20
46.6644
 30
0.0
 11
277.986
 21
46.6644
 31
0.0
  0
LINE
  8
0
 62
     0
 10
277.986
 20
46.6644
 30
0.0
 11
277.986
 21
32.6636
 31
0.0
  0
LINE
  8
0
 62
     0
 10
277.986
 20
32.6636
 30
0.0
 11
263.985
 21
32.6636
 31
0.0
  0
LINE
  8
0
 62
     0
 10
263.985
 20
32.6636
 30
0.0
 11
263.985
 21
46.6644
 31
0.0
  0
LINE
  8
0
 62
     0
 10
160.215
 20
55.8052
 30
0.0
 11
162.163
 21
41.9421
 31
0.0
  0
LINE
  8
0
 62
     0
 10
162.163
 20
41.9421
 30
0.0
 11
176.028
 21
43.8905
 31
0.0
  0
LINE
  8
0
 62
     0
 10
176.028
 20
43.8905
 30
0.0
 11
174.079
 21
57.7536
 31
0.0
  0
LINE
  8
0
 62
     0
 10
174.079
 20
57.7536
 30
0.0
 11
160.215
 21
55.8052
 31
0.0
  0
LINE
  8
0
 62
     0
 10
119.297
 20
44.1565
 30
0.0
 11
133.16
 21
42.2081
 31
0.0
  0
LINE
  8
0
 62
     0
 10
133.16
 20
42.2081
 30
0.0
 11
135.108
 21
56.0723
 31
0.0
  0
LINE
  8
0
 62
     0
 10
135.108
 20
56.0723
 30
0.0
 11
121.245
 21
58.0196
 31
0.0
  0
LINE
  8
0
 62
     0
 10
121.245
 20
58.0196
 30
0.0
 11
119.297
 21
44.1565
 31
0.0
  0
LINE
  8
0
 62
     0
 10
179.08
 20
58.4563
 30
0.0
 11
181.029
 21
44.5932
 31
0.0
  0
LINE
  8
0
 62
     0
 10
181.029
 20
44.5932
 30
0.0
 11
194.892
 21
46.5406
 31
0.0
  0
LINE
  8
0
 62
     0
 10
194.892
 20
46.5406
 30
0.0
 11
192.943
 21
60.4051
 31
0.0
  0
LINE
  8
0
 62
     0
 10
192.943
 20
60.4051
 30
0.0
 11
179.08
 21
58.4563
 31
0.0
  0
LINE
  8
0
 62
     0
 10
100.432
 20
46.8066
 30
0.0
 11
114.296
 21
44.8592
 31
0.0
  0
LINE
  8
0
 62
     0
 10
114.296
 20
44.8592
 30
0.0
 11
116.245
 21
58.7237
 31
0.0
  0
LINE
  8
0
 62
     0
 10
116.245
 20
58.7237
 30
0.0
 11
102.38
 21
60.6707
 31
0.0
  0
LINE
  8
0
 62
     0
 10
102.38
 20
60.6707
 30
0.0
 11
100.432
 21
46.8066
 31
0.0
  0
LINE
  8
0
 62
     0
 10
197.944
 20
61.1078
 30
0.0
 11
199.894
 21
47.2447
 31
0.0
  0
LINE
  8
0
 62
     0
 10
199.894
 20
47.2447
 30
0.0
 11
213.757
 21
49.1931
 31
0.0
  0
LINE
  8
0
 62
     0
 10
213.757
 20
49.1931
 30
0.0
 11
211.808
 21
63.0562
 31
0.0
  0
LINE
  8
0
 62
     0
 10
211.808
 20
63.0562
 30
0.0
 11
197.944
 21
61.1078
 31
0.0
  0
LINE
  8
0
 62
     0
 10
81.5675
 20
49.4591
 30
0.0
 11
95.432
 21
47.5107
 31
0.0
  0
LINE
  8
0
 62
     0
 10
95.432
 20
47.5107
 30
0.0
 11
97.379
 21
61.3738
 31
0.0
  0
LINE
  8
0
 62
     0
 10
97.379
 20
61.3738
 30
0.0
 11
83.5159
 21
63.3222
 31
0.0
  0
LINE
  8
0
 62
     0
 10
83.5159
 20
63.3222
 30
0.0
 11
81.5675
 21
49.4591
 31
0.0
  0
LINE
  8
0
 62
     0
 10
216.809
 20
63.7589
 30
0.0
 11
218.758
 21
49.8948
 31
0.0
  0
LINE
  8
0
 62
     0
 10
218.758
 20
49.8948
 30
0.0
 11
232.621
 21
51.8446
 31
0.0
  0
LINE
  8
0
 62
     0
 10
232.621
 20
51.8446
 30
0.0
 11
230.674
 21
65.7077
 31
0.0
  0
LINE
  8
0
 62
     0
 10
230.674
 20
65.7077
 30
0.0
 11
216.809
 21
63.7589
 31
0.0
  0
LINE
  8
0
 62
     0
 10
62.702
 20
52.1106
 30
0.0
 11
76.5665
 21
50.1618
 31
0.0
  0
LINE
  8
0
 62
     0
 10
76.5665
 20
50.1618
 30
0.0
 11
78.5153
 21
64.0249
 31
0.0
  0
LINE
  8
0
 62
     0
 10
78.5153
 20
64.0249
 30
0.0
 11
64.6522
 21
65.9737
 31
0.0
  0
LINE
  8
0
 62
     0
 10
64.6522
 20
65.9737
 30
0.0
 11
62.702
 21
52.1106
 31
0.0
  0
LINE
  8
0
 62
     0
 10
287.703
 20
65.7144
 30
0.0
 11
287.703
 21
61.014
 31
0.0
  0
LINE
  8
0
 62
     0
 10
287.703
 20
61.014
 30
0.0
 11
286.177
 21
61.014
 31
0.0
  0
LINE
  8
0
 62
     0
 10
286.177
 20
61.014
 30
0.0
 11
286.177
 21
64.244
 31
0.0
  0
LINE
  8
0
 62
     0
 10
286.177
 20
64.244
 30
0.0
 11
284.452
 21
64.244
 31
0.0
  0
LINE
  8
0
 62
     0
 10
284.452
 20
64.244
 30
0.0
 11
284.452
 21
65.1648
 31
0.0
  0
LINE
  8
0
 62
     0
 10
284.452
 20
65.1648
 30
0.0
 11
281.153
 21
65.1648
 31
0.0
  0
LINE
  8
0
 62
     0
 10
281.153
 20
65.1648
 30
0.0
 11
281.153
 21
64.244
 31
0.0
  0
LINE
  8
0
 62
     0
 10
281.153
 20
64.244
 30
0.0
 11
279.428
 21
64.244
 31
0.0
  0
LINE
  8
0
 62
     0
 10
279.428
 20
64.244
 30
0.0
 11
279.428
 21
61.014
 31
0.0
  0
LINE
  8
0
 62
     0
 10
279.428
 20
61.014
 30
0.0
 11
278.602
 21
61.014
 31
0.0
  0
LINE
  8
0
 62
     0
 10
278.602
 20
61.014
 30
0.0
 11
278.602
 21
58.214
 31
0.0
  0
LINE
  8
0
 62
     0
 10
278.602
 20
58.214
 30
0.0
 11
279.428
 21
58.214
 31
0.0
  0
LINE
  8
0
 62
     0
 10
279.428
 20
58.214
 30
0.0
 11
279.428
 21
51.9437
 31
0.0
  0
LINE
  8
0
 62
     0
 10
279.428
 20
51.9437
 30
0.0
 11
281.153
 21
51.9437
 31
0.0
  0
LINE
  8
0
 62
     0
 10
281.153
 20
51.9437
 30
0.0
 11
281.153
 21
50.964
 31
0.0
  0
LINE
  8
0
 62
     0
 10
281.153
 20
50.964
 30
0.0
 11
284.452
 21
50.964
 31
0.0
  0
LINE
  8
0
 62
     0
 10
284.452
 20
50.964
 30
0.0
 11
284.452
 21
51.9437
 31
0.0
  0
LINE
  8
0
 62
     0
 10
284.452
 20
51.9437
 30
0.0
 11
286.177
 21
51.9437
 31
0.0
  0
LINE
  8
0
 62
     0
 10
286.177
 20
51.9437
 30
0.0
 11
286.177
 21
56.4141
 31
0.0
  0
LINE
  8
0
 62
     0
 10
286.177
 20
56.4141
 30
0.0
 11
287.703
 21
56.4141
 31
0.0
  0
LINE
  8
0
 62
     0
 10
287.703
 20
56.4141
 30
0.0
 11
287.703
 21
51.7137
 31
0.0
  0
LINE
  8
0
 62
     0
 10
287.703
 20
51.7137
 30
0.0
 11
301.702
 21
51.7137
 31
0.0
  0
LINE
  8
0
 62
     0
 10
301.702
 20
51.7137
 30
0.0
 11
301.702
 21
56.4141
 31
0.0
  0
LINE
  8
0
 62
     0
 10
301.702
 20
56.4141
 30
0.0
 11
303.228
 21
56.4141
 31
0.0
  0
LINE
  8
0
 62
     0
 10
303.228
 20
56.4141
 30
0.0
 11
303.228
 21
51.9437
 31
0.0
  0
LINE
  8
0
 62
     0
 10
303.228
 20
51.9437
 30
0.0
 11
304.953
 21
51.9437
 31
0.0
  0
LINE
  8
0
 62
     0
 10
304.953
 20
51.9437
 30
0.0
 11
304.953
 21
50.964
 31
0.0
  0
LINE
  8
0
 62
     0
 10
304.953
 20
50.964
 30
0.0
 11
308.252
 21
50.964
 31
0.0
  0
LINE
  8
0
 62
     0
 10
308.252
 20
50.964
 30
0.0
 11
308.252
 21
51.9437
 31
0.0
  0
LINE
  8
0
 62
     0
 10
308.252
 20
51.9437
 30
0.0
 11
309.977
 21
51.9437
 31
0.0
  0
LINE
  8
0
 62
     0
 10
309.977
 20
51.9437
 30
0.0
 11
309.977
 21
58.214
 31
0.0
  0
LINE
  8
0
 62
     0
 10
309.977
 20
58.214
 30
0.0
 11
310.803
 21
58.214
 31
0.0
  0
LINE
  8
0
 62
     0
 10
310.803
 20
58.214
 30
0.0
 11
310.803
 21
61.014
 31
0.0
  0
LINE
  8
0
 62
     0
 10
310.803
 20
61.014
 30
0.0
 11
309.977
 21
61.014
 31
0.0
  0
LINE
  8
0
 62
     0
 10
309.977
 20
61.014
 30
0.0
 11
309.977
 21
64.244
 31
0.0
  0
LINE
  8
0
 62
     0
 10
309.977
 20
64.244
 30
0.0
 11
308.252
 21
64.244
 31
0.0
  0
LINE
  8
0
 62
     0
 10
308.252
 20
64.244
 30
0.0
 11
308.252
 21
65.1648
 31
0.0
  0
LINE
  8
0
 62
     0
 10
308.252
 20
65.1648
 30
0.0
 11
304.953
 21
65.1648
 31
0.0
  0
LINE
  8
0
 62
     0
 10
304.953
 20
65.1648
 30
0.0
 11
304.953
 21
64.244
 31
0.0
  0
LINE
  8
0
 62
     0
 10
304.953
 20
64.244
 30
0.0
 11
303.228
 21
64.244
 31
0.0
  0
LINE
  8
0
 62
     0
 10
303.228
 20
64.244
 30
0.0
 11
303.228
 21
61.014
 31
0.0
  0
LINE
  8
0
 62
     0
 10
303.228
 20
61.014
 30
0.0
 11
301.702
 21
61.014
 31
0.0
  0
LINE
  8
0
 62
     0
 10
301.702
 20
61.014
 30
0.0
 11
301.702
 21
65.7144
 31
0.0
  0
LINE
  8
0
 62
     0
 10
301.702
 20
65.7144
 30
0.0
 11
287.703
 21
65.7144
 31
0.0
  0
LINE
  8
0
 62
     0
 10
17.1924
 20
65.7144
 30
0.0
 11
31.1919
 21
65.7144
 31
0.0
  0
LINE
  8
0
 62
     0
 10
31.1919
 20
65.7144
 30
0.0
 11
31.1919
 21
51.7137
 31
0.0
  0
LINE
  8
0
 62
     0
 10
31.1919
 20
51.7137
 30
0.0
 11
17.1924
 21
51.7137
 31
0.0
  0
LINE
  8
0
 62
     0
 10
17.1924
 20
51.7137
 30
0.0
 11
17.1924
 21
65.7144
 31
0.0
  0
LINE
  8
0
 62
     0
 10
43.386
 20
65.7144
 30
0.0
 11
57.3871
 21
65.7144
 31
0.0
  0
LINE
  8
0
 62
     0
 10
57.3871
 20
65.7144
 30
0.0
 11
57.3871
 21
51.7137
 31
0.0
  0
LINE
  8
0
 62
     0
 10
57.3871
 20
51.7137
 30
0.0
 11
43.386
 21
51.7137
 31
0.0
  0
LINE
  8
0
 62
     0
 10
43.386
 20
51.7137
 30
0.0
 11
43.386
 21
65.7144
 31
0.0
  0
LINE
  8
0
 62
     0
 10
237.696
 20
65.7144
 30
0.0
 11
251.696
 21
65.7144
 31
0.0
  0
LINE
  8
0
 62
     0
 10
251.696
 20
65.7144
 30
0.0
 11
251.696
 21
51.7137
 31
0.0
  0
LINE
  8
0
 62
     0
 10
251.696
 20
51.7137
 30
0.0
 11
237.696
 21
51.7137
 31
0.0
  0
LINE
  8
0
 62
     0
 10
237.696
 20
51.7137
 30
0.0
 11
237.696
 21
65.7144
 31
0.0
  0
LINE
  8
0
 62
     0
 10
256.746
 20
65.7144
 30
0.0
 11
270.746
 21
65.7144
 31
0.0
  0
LINE
  8
0
 62
     0
 10
270.746
 20
65.7144
 30
0.0
 11
270.746
 21
51.7137
 31
0.0
  0
LINE
  8
0
 62
     0
 10
270.746
 20
51.7137
 30
0.0
 11
256.746
 21
51.7137
 31
0.0
  0
LINE
  8
0
 62
     0
 10
256.746
 20
51.7137
 30
0.0
 11
256.746
 21
65.7144
 31
0.0
  0
LINE
  8
0
 62
     0
 10
152.848
 20
74.0075
 30
0.0
 11
154.796
 21
60.1444
 31
0.0
  0
LINE
  8
0
 62
     0
 10
154.796
 20
60.1444
 30
0.0
 11
168.661
 21
62.0917
 31
0.0
  0
LINE
  8
0
 62
     0
 10
168.661
 20
62.0917
 30
0.0
 11
166.711
 21
75.9562
 31
0.0
  0
LINE
  8
0
 62
     0
 10
166.711
 20
75.9562
 30
0.0
 11
152.848
 21
74.0075
 31
0.0
  0
LINE
  8
0
 62
     0
 10
117.231
 20
63.6845
 30
0.0
 11
131.095
 21
61.7347
 31
0.0
  0
LINE
  8
0
 62
     0
 10
131.095
 20
61.7347
 30
0.0
 11
133.044
 21
75.5992
 31
0.0
  0
LINE
  8
0
 62
     0
 10
133.044
 20
75.5992
 30
0.0
 11
119.181
 21
77.5476
 31
0.0
  0
LINE
  8
0
 62
     0
 10
119.181
 20
77.5476
 30
0.0
 11
117.231
 21
63.6845
 31
0.0
  0
LINE
  8
0
 62
     0
 10
171.712
 20
76.659
 30
0.0
 11
173.662
 21
62.7944
 31
0.0
  0
LINE
  8
0
 62
     0
 10
173.662
 20
62.7944
 30
0.0
 11
187.525
 21
64.7428
 31
0.0
  0
LINE
  8
0
 62
     0
 10
187.525
 20
64.7428
 30
0.0
 11
185.576
 21
78.6074
 31
0.0
  0
LINE
  8
0
 62
     0
 10
185.576
 20
78.6074
 30
0.0
 11
171.712
 21
76.659
 31
0.0
  0
LINE
  8
0
 62
     0
 10
98.3671
 20
66.3346
 30
0.0
 11
112.23
 21
64.3862
 31
0.0
  0
LINE
  8
0
 62
     0
 10
112.23
 20
64.3862
 30
0.0
 11
114.18
 21
78.2507
 31
0.0
  0
LINE
  8
0
 62
     0
 10
114.18
 20
78.2507
 30
0.0
 11
100.316
 21
80.1991
 31
0.0
  0
LINE
  8
0
 62
     0
 10
100.316
 20
80.1991
 30
0.0
 11
98.3671
 21
66.3346
 31
0.0
  0
LINE
  8
0
 62
     0
 10
190.577
 20
79.3101
 30
0.0
 11
192.526
 21
65.4459
 31
0.0
  0
LINE
  8
0
 62
     0
 10
192.526
 20
65.4459
 30
0.0
 11
206.39
 21
67.3943
 31
0.0
  0
LINE
  8
0
 62
     0
 10
206.39
 20
67.3943
 30
0.0
 11
204.442
 21
81.2574
 31
0.0
  0
LINE
  8
0
 62
     0
 10
204.442
 20
81.2574
 30
0.0
 11
190.577
 21
79.3101
 31
0.0
  0
LINE
  8
0
 62
     0
 10
79.5031
 20
68.986
 30
0.0
 11
93.3662
 21
67.0373
 31
0.0
  0
LINE
  8
0
 62
     0
 10
93.3662
 20
67.0373
 30
0.0
 11
95.3149
 21
80.9004
 31
0.0
  0
LINE
  8
0
 62
     0
 10
95.3149
 20
80.9004
 30
0.0
 11
81.4504
 21
82.8506
 31
0.0
  0
LINE
  8
0
 62
     0
 10
81.4504
 20
82.8506
 30
0.0
 11
79.5031
 21
68.986
 31
0.0
  0
LINE
  8
0
 62
     0
 10
209.441
 20
81.9616
 30
0.0
 11
211.391
 21
68.097
 31
0.0
  0
LINE
  8
0
 62
     0
 10
211.391
 20
68.097
 30
0.0
 11
225.254
 21
70.0458
 31
0.0
  0
LINE
  8
0
 62
     0
 10
225.254
 20
70.0458
 30
0.0
 11
223.306
 21
83.9089
 31
0.0
  0
LINE
  8
0
 62
     0
 10
223.306
 20
83.9089
 30
0.0
 11
209.441
 21
81.9616
 31
0.0
  0
LINE
  8
0
 62
     0
 10
60.6379
 20
71.6372
 30
0.0
 11
74.501
 21
69.6888
 31
0.0
  0
LINE
  8
0
 62
     0
 10
74.501
 20
69.6888
 30
0.0
 11
76.4508
 21
83.5533
 31
0.0
  0
LINE
  8
0
 62
     0
 10
76.4508
 20
83.5533
 30
0.0
 11
62.5863
 21
85.5003
 31
0.0
  0
LINE
  8
0
 62
     0
 10
62.5863
 20
85.5003
 30
0.0
 11
60.6379
 21
71.6372
 31
0.0
  0
LINE
  8
0
 62
     0
 10
17.479
 20
84.7644
 30
0.0
 11
31.4785
 21
84.7644
 31
0.0
  0
LINE
  8
0
 62
     0
 10
31.4785
 20
84.7644
 30
0.0
 11
31.4785
 21
70.7637
 31
0.0
  0
LINE
  8
0
 62
     0
 10
31.4785
 20
70.7637
 30
0.0
 11
17.479
 21
70.7637
 31
0.0
  0
LINE
  8
0
 62
     0
 10
17.479
 20
70.7637
 30
0.0
 11
17.479
 21
84.7644
 31
0.0
  0
LINE
  8
0
 62
     0
 10
41.2902
 20
84.7644
 30
0.0
 11
55.2909
 21
84.7644
 31
0.0
  0
LINE
  8
0
 62
     0
 10
55.2909
 20
84.7644
 30
0.0
 11
55.2909
 21
70.7637
 31
0.0
  0
LINE
  8
0
 62
     0
 10
55.2909
 20
70.7637
 30
0.0
 11
41.2902
 21
70.7637
 31
0.0
  0
LINE
  8
0
 62
     0
 10
41.2902
 20
70.7637
 30
0.0
 11
41.2902
 21
84.7644
 31
0.0
  0
LINE
  8
0
 62
     0
 10
230.648
 20
84.7644
 30
0.0
 11
244.647
 21
84.7644
 31
0.0
  0
LINE
  8
0
 62
     0
 10
244.647
 20
84.7644
 30
0.0
 11
244.647
 21
70.7637
 31
0.0
  0
LINE
  8
0
 62
     0
 10
244.647
 20
70.7637
 30
0.0
 11
230.648
 21
70.7637
 31
0.0
  0
LINE
  8
0
 62
     0
 10
230.648
 20
70.7637
 30
0.0
 11
230.648
 21
84.7644
 31
0.0
  0
LINE
  8
0
 62
     0
 10
249.698
 20
84.7644
 30
0.0
 11
263.697
 21
84.7644
 31
0.0
  0
LINE
  8
0
 62
     0
 10
263.697
 20
84.7644
 30
0.0
 11
263.697
 21
70.7637
 31
0.0
  0
LINE
  8
0
 62
     0
 10
263.697
 20
70.7637
 30
0.0
 11
249.698
 21
70.7637
 31
0.0
  0
LINE
  8
0
 62
     0
 10
249.698
 20
70.7637
 30
0.0
 11
249.698
 21
84.7644
 31
0.0
  0
LINE
  8
0
 62
     0
 10
268.748
 20
84.7644
 30
0.0
 11
282.747
 21
84.7644
 31
0.0
  0
LINE
  8
0
 62
     0
 10
282.747
 20
84.7644
 30
0.0
 11
282.747
 21
70.7637
 31
0.0
  0
LINE
  8
0
 62
     0
 10
282.747
 20
70.7637
 30
0.0
 11
268.748
 21
70.7637
 31
0.0
  0
LINE
  8
0
 62
     0
 10
268.748
 20
70.7637
 30
0.0
 11
268.748
 21
84.7644
 31
0.0
  0
LINE
  8
0
 62
     0
 10
292.56
 20
84.7644
 30
0.0
 11
306.561
 21
84.7644
 31
0.0
  0
LINE
  8
0
 62
     0
 10
306.561
 20
84.7644
 30
0.0
 11
306.561
 21
70.7637
 31
0.0
  0
LINE
  8
0
 62
     0
 10
306.561
 20
70.7637
 30
0.0
 11
292.56
 21
70.7637
 31
0.0
  0
LINE
  8
0
 62
     0
 10
292.56
 20
70.7637
 30
0.0
 11
292.56
 21
84.7644
 31
0.0
  0
LINE
  8
0
 62
     0
 10
319.326
 20
84.7644
 30
0.0
 11
333.325
 21
84.7644
 31
0.0
  0
LINE
  8
0
 62
     0
 10
333.325
 20
84.7644
 30
0.0
 11
333.325
 21
70.7637
 31
0.0
  0
LINE
  8
0
 62
     0
 10
333.325
 20
70.7637
 30
0.0
 11
319.326
 21
70.7637
 31
0.0
  0
LINE
  8
0
 62
     0
 10
319.326
 20
70.7637
 30
0.0
 11
319.326
 21
84.7644
 31
0.0
  0
LINE
  8
0
 62
     0
 10
129.315
 20
81.2229
 30
0.0
 11
143.178
 21
79.2745
 31
0.0
  0
LINE
  8
0
 62
     0
 10
143.178
 20
79.2745
 30
0.0
 11
145.128
 21
93.1376
 31
0.0
  0
LINE
  8
0
 62
     0
 10
145.128
 20
93.1376
 30
0.0
 11
131.264
 21
95.086
 31
0.0
  0
LINE
  8
0
 62
     0
 10
131.264
 20
95.086
 30
0.0
 11
129.315
 21
81.2229
 31
0.0
  0
LINE
  8
0
 62
     0
 10
159.629
 20
94.1987
 30
0.0
 11
161.578
 21
80.3342
 31
0.0
  0
LINE
  8
0
 62
     0
 10
161.578
 20
80.3342
 30
0.0
 11
175.441
 21
82.2826
 31
0.0
  0
LINE
  8
0
 62
     0
 10
175.441
 20
82.2826
 30
0.0
 11
173.492
 21
96.1457
 31
0.0
  0
LINE
  8
0
 62
     0
 10
173.492
 20
96.1457
 30
0.0
 11
159.629
 21
94.1987
 31
0.0
  0
LINE
  8
0
 62
     0
 10
110.451
 20
83.8743
 30
0.0
 11
124.314
 21
81.9256
 31
0.0
  0
LINE
  8
0
 62
     0
 10
124.314
 20
81.9256
 30
0.0
 11
126.263
 21
95.7887
 31
0.0
  0
LINE
  8
0
 62
     0
 10
126.263
 20
95.7887
 30
0.0
 11
112.4
 21
97.7388
 31
0.0
  0
LINE
  8
0
 62
     0
 10
112.4
 20
97.7388
 30
0.0
 11
110.451
 21
83.8743
 31
0.0
  0
LINE
  8
0
 62
     0
 10
178.493
 20
96.8484
 30
0.0
 11
180.443
 21
82.9853
 31
0.0
  0
LINE
  8
0
 62
     0
 10
180.443
 20
82.9853
 30
0.0
 11
194.306
 21
84.9327
 31
0.0
  0
LINE
  8
0
 62
     0
 10
194.306
 20
84.9327
 30
0.0
 11
192.358
 21
98.7972
 31
0.0
  0
LINE
  8
0
 62
     0
 10
192.358
 20
98.7972
 30
0.0
 11
178.493
 21
96.8484
 31
0.0
  0
LINE
  8
0
 62
     0
 10
91.5871
 20
86.5258
 30
0.0
 11
105.449
 21
84.5771
 31
0.0
  0
LINE
  8
0
 62
     0
 10
105.449
 20
84.5771
 30
0.0
 11
107.399
 21
98.4402
 31
0.0
  0
LINE
  8
0
 62
     0
 10
107.399
 20
98.4402
 30
0.0
 11
93.5344
 21
100.389
 31
0.0
  0
LINE
  8
0
 62
     0
 10
93.5344
 20
100.389
 30
0.0
 11
91.5871
 21
86.5258
 31
0.0
  0
LINE
  8
0
 62
     0
 10
197.358
 20
99.4999
 30
0.0
 11
199.307
 21
85.6354
 31
0.0
  0
LINE
  8
0
 62
     0
 10
199.307
 20
85.6354
 30
0.0
 11
213.17
 21
87.5852
 31
0.0
  0
LINE
  8
0
 62
     0
 10
213.17
 20
87.5852
 30
0.0
 11
211.223
 21
101.448
 31
0.0
  0
LINE
  8
0
 62
     0
 10
211.223
 20
101.448
 30
0.0
 11
197.358
 21
99.4999
 31
0.0
  0
LINE
  8
0
 62
     0
 10
72.722
 20
89.1755
 30
0.0
 11
86.5851
 21
87.2285
 31
0.0
  0
LINE
  8
0
 62
     0
 10
86.5851
 20
87.2285
 30
0.0
 11
88.5335
 21
101.092
 31
0.0
  0
LINE
  8
0
 62
     0
 10
88.5335
 20
101.092
 30
0.0
 11
74.6689
 21
103.04
 31
0.0
  0
LINE
  8
0
 62
     0
 10
74.6689
 20
103.04
 30
0.0
 11
72.722
 21
89.1755
 31
0.0
  0
LINE
  8
0
 62
     0
 10
216.222
 20
102.151
 30
0.0
 11
218.171
 21
88.2883
 31
0.0
  0
LINE
  8
0
 62
     0
 10
218.171
 20
88.2883
 30
0.0
 11
232.035
 21
90.2367
 31
0.0
  0
LINE
  8
0
 62
     0
 10
232.035
 20
90.2367
 30
0.0
 11
230.087
 21
104.1
 31
0.0
  0
LINE
  8
0
 62
     0
 10
230.087
 20
104.1
 30
0.0
 11
216.222
 21
102.151
 31
0.0
  0
LINE
  8
0
 62
     0
 10
288.845
 20
103.814
 30
0.0
 11
288.845
 21
99.114
 31
0.0
  0
LINE
  8
0
 62
     0
 10
288.845
 20
99.114
 30
0.0
 11
287.321
 21
99.114
 31
0.0
  0
LINE
  8
0
 62
     0
 10
287.321
 20
99.114
 30
0.0
 11
287.321
 21
102.344
 31
0.0
  0
LINE
  8
0
 62
     0
 10
287.321
 20
102.344
 30
0.0
 11
285.596
 21
102.344
 31
0.0
  0
LINE
  8
0
 62
     0
 10
285.596
 20
102.344
 30
0.0
 11
285.596
 21
103.265
 31
0.0
  0
LINE
  8
0
 62
     0
 10
285.596
 20
103.265
 30
0.0
 11
282.295
 21
103.265
 31
0.0
  0
LINE
  8
0
 62
     0
 10
282.295
 20
103.265
 30
0.0
 11
282.295
 21
102.344
 31
0.0
  0
LINE
  8
0
 62
     0
 10
282.295
 20
102.344
 30
0.0
 11
280.57
 21
102.344
 31
0.0
  0
LINE
  8
0
 62
     0
 10
280.57
 20
102.344
 30
0.0
 11
280.57
 21
99.114
 31
0.0
  0
LINE
  8
0
 62
     0
 10
280.57
 20
99.114
 30
0.0
 11
279.746
 21
99.114
 31
0.0
  0
LINE
  8
0
 62
     0
 10
279.746
 20
99.114
 30
0.0
 11
279.746
 21
96.314
 31
0.0
  0
LINE
  8
0
 62
     0
 10
279.746
 20
96.314
 30
0.0
 11
280.57
 21
96.314
 31
0.0
  0
LINE
  8
0
 62
     0
 10
280.57
 20
96.314
 30
0.0
 11
280.57
 21
90.0437
 31
0.0
  0
LINE
  8
0
 62
     0
 10
280.57
 20
90.0437
 30
0.0
 11
282.295
 21
90.0437
 31
0.0
  0
LINE
  8
0
 62
     0
 10
282.295
 20
90.0437
 30
0.0
 11
282.295
 21
89.064
 31
0.0
  0
LINE
  8
0
 62
     0
 10
282.295
 20
89.064
 30
0.0
 11
285.596
 21
89.064
 31
0.0
  0
LINE
  8
0
 62
     0
 10
285.596
 20
89.064
 30
0.0
 11
285.596
 21
90.0437
 31
0.0
  0
LINE
  8
0
 62
     0
 10
285.596
 20
90.0437
 30
0.0
 11
287.321
 21
90.0437
 31
0.0
  0
LINE
  8
0
 62
     0
 10
287.321
 20
90.0437
 30
0.0
 11
287.321
 21
94.5141
 31
0.0
  0
LINE
  8
0
 62
     0
 10
287.321
 20
94.5141
 30
0.0
 11
288.845
 21
94.5141
 31
0.0
  0
LINE
  8
0
 62
     0
 10
288.845
 20
94.5141
 30
0.0
 11
288.845
 21
89.8137
 31
0.0
  0
LINE
  8
0
 62
     0
 10
288.845
 20
89.8137
 30
0.0
 11
302.846
 21
89.8137
 31
0.0
  0
LINE
  8
0
 62
     0
 10
302.846
 20
89.8137
 30
0.0
 11
302.846
 21
94.5141
 31
0.0
  0
LINE
  8
0
 62
     0
 10
302.846
 20
94.5141
 30
0.0
 11
304.37
 21
94.5141
 31
0.0
  0
LINE
  8
0
 62
     0
 10
304.37
 20
94.5141
 30
0.0
 11
304.37
 21
90.0437
 31
0.0
  0
LINE
  8
0
 62
     0
 10
304.37
 20
90.0437
 30
0.0
 11
306.095
 21
90.0437
 31
0.0
  0
LINE
  8
0
 62
     0
 10
306.095
 20
90.0437
 30
0.0
 11
306.095
 21
89.064
 31
0.0
  0
LINE
  8
0
 62
     0
 10
306.095
 20
89.064
 30
0.0
 11
309.396
 21
89.064
 31
0.0
  0
LINE
  8
0
 62
     0
 10
309.396
 20
89.064
 30
0.0
 11
309.396
 21
90.0437
 31
0.0
  0
LINE
  8
0
 62
     0
 10
309.396
 20
90.0437
 30
0.0
 11
311.121
 21
90.0437
 31
0.0
  0
LINE
  8
0
 62
     0
 10
311.121
 20
90.0437
 30
0.0
 11
311.121
 21
96.314
 31
0.0
  0
LINE
  8
0
 62
     0
 10
311.121
 20
96.314
 30
0.0
 11
311.945
 21
96.314
 31
0.0
  0
LINE
  8
0
 62
     0
 10
311.945
 20
96.314
 30
0.0
 11
311.945
 21
99.114
 31
0.0
  0
LINE
  8
0
 62
     0
 10
311.945
 20
99.114
 30
0.0
 11
311.121
 21
99.114
 31
0.0
  0
LINE
  8
0
 62
     0
 10
311.121
 20
99.114
 30
0.0
 11
311.121
 21
102.344
 31
0.0
  0
LINE
  8
0
 62
     0
 10
311.121
 20
102.344
 30
0.0
 11
309.396
 21
102.344
 31
0.0
  0
LINE
  8
0
 62
     0
 10
309.396
 20
102.344
 30
0.0
 11
309.396
 21
103.265
 31
0.0
  0
LINE
  8
0
 62
     0
 10
309.396
 20
103.265
 30
0.0
 11
306.095
 21
103.265
 31
0.0
  0
LINE
  8
0
 62
     0
 10
306.095
 20
103.265
 30
0.0
 11
306.095
 21
102.344
 31
0.0
  0
LINE
  8
0
 62
     0
 10
306.095
 20
102.344
 30
0.0
 11
304.37
 21
102.344
 31
0.0
  0
LINE
  8
0
 62
     0
 10
304.37
 20
102.344
 30
0.0
 11
304.37
 21
99.114
 31
0.0
  0
LINE
  8
0
 62
     0
 10
304.37
 20
99.114
 30
0.0
 11
302.846
 21
99.114
 31
0.0
  0
LINE
  8
0
 62
     0
 10
302.846
 20
99.114
 30
0.0
 11
302.846
 21
103.814
 31
0.0
  0
LINE
  8
0
 62
     0
 10
302.846
 20
103.814
 30
0.0
 11
288.845
 21
103.814
 31
0.0
  0
LINE
  8
0
 62
     0
 10
15.1929
 20
103.814
 30
0.0
 11
29.1924
 21
103.814
 31
0.0
  0
LINE
  8
0
 62
     0
 10
29.1924
 20
103.814
 30
0.0
 11
29.1924
 21
89.8137
 31
0.0
  0
LINE
  8
0
 62
     0
 10
29.1924
 20
89.8137
 30
0.0
 11
15.1929
 21
89.8137
 31
0.0
  0
LINE
  8
0
 62
     0
 10
15.1929
 20
89.8137
 30
0.0
 11
15.1929
 21
103.814
 31
0.0
  0
LINE
  8
0
 62
     0
 10
34.2415
 20
103.814
 30
0.0
 11
48.241
 21
103.814
 31
0.0
  0
LINE
  8
0
 62
     0
 10
48.241
 20
103.814
 30
0.0
 11
48.241
 21
89.8137
 31
0.0
  0
LINE
  8
0
 62
     0
 10
48.241
 20
89.8137
 30
0.0
 11
34.2415
 21
89.8137
 31
0.0
  0
LINE
  8
0
 62
     0
 10
34.2415
 20
89.8137
 30
0.0
 11
34.2415
 21
103.814
 31
0.0
  0
LINE
  8
0
 62
     0
 10
237.316
 20
103.814
 30
0.0
 11
251.316
 21
103.814
 31
0.0
  0
LINE
  8
0
 62
     0
 10
251.316
 20
103.814
 30
0.0
 11
251.316
 21
89.8137
 31
0.0
  0
LINE
  8
0
 62
     0
 10
251.316
 20
89.8137
 30
0.0
 11
237.316
 21
89.8137
 31
0.0
  0
LINE
  8
0
 62
     0
 10
237.316
 20
89.8137
 30
0.0
 11
237.316
 21
103.814
 31
0.0
  0
LINE
  8
0
 62
     0
 10
256.366
 20
103.814
 30
0.0
 11
270.366
 21
103.814
 31
0.0
  0
LINE
  8
0
 62
     0
 10
270.366
 20
103.814
 30
0.0
 11
270.366
 21
89.8137
 31
0.0
  0
LINE
  8
0
 62
     0
 10
270.366
 20
89.8137
 30
0.0
 11
256.366
 21
89.8137
 31
0.0
  0
LINE
  8
0
 62
     0
 10
256.366
 20
89.8137
 30
0.0
 11
256.366
 21
103.814
 31
0.0
  0
LINE
  8
0
 62
     0
 10
321.707
 20
103.814
 30
0.0
 11
335.707
 21
103.814
 31
0.0
  0
LINE
  8
0
 62
     0
 10
335.707
 20
103.814
 30
0.0
 11
335.707
 21
89.8137
 31
0.0
  0
LINE
  8
0
 62
     0
 10
335.707
 20
89.8137
 30
0.0
 11
321.707
 21
89.8137
 31
0.0
  0
LINE
  8
0
 62
     0
 10
321.707
 20
89.8137
 30
0.0
 11
321.707
 21
103.814
 31
0.0
  0
LINE
  8
0
 62
     0
 10
53.8565
 20
91.8284
 30
0.0
 11
67.721
 21
89.8783
 31
0.0
  0
LINE
  8
0
 62
     0
 10
67.721
 20
89.8783
 30
0.0
 11
69.668
 21
103.743
 31
0.0
  0
LINE
  8
0
 62
     0
 10
69.668
 20
103.743
 30
0.0
 11
55.8052
 21
105.692
 31
0.0
  0
LINE
  8
0
 62
     0
 10
55.8052
 20
105.692
 30
0.0
 11
53.8565
 21
91.8284
 31
0.0
  0
ENDSEC
  0
EOF
